<svg width="170" height="50" viewBox="0 0 170 50" fill="none" xmlns="http://www.w3.org/2000/svg">
<path d="M68.96 32V31.496L71.168 31.136V13.664L68.96 13.328V12.8H76.016V13.328L73.808 13.664V31.424H80.984L82.952 26.144H83.6V32H68.96ZM88.8033 32.24C87.7793 32.24 86.9393 31.976 86.2833 31.448C85.6273 30.904 85.2993 30.104 85.2993 29.048C85.2993 27.544 85.9313 26.48 87.1953 25.856C88.4593 25.216 89.9233 24.896 91.5873 24.896H93.1953V23.048C93.1953 22.216 93.0993 21.576 92.9073 21.128C92.7313 20.664 92.4513 20.344 92.0673 20.168C91.6833 19.976 91.1633 19.88 90.5073 19.88C89.7553 19.88 89.1953 20.032 88.8273 20.336C88.4593 20.624 88.2753 21.016 88.2753 21.512C88.2753 21.976 88.4993 22.28 88.9473 22.424C88.9473 22.824 88.7953 23.176 88.4913 23.48C88.1873 23.784 87.8273 23.936 87.4113 23.936C86.9633 23.936 86.6033 23.816 86.3313 23.576C86.0593 23.32 85.9233 22.936 85.9233 22.424C85.9233 21.496 86.3873 20.752 87.3153 20.192C88.2433 19.632 89.4033 19.352 90.7953 19.352C93.9953 19.352 95.5953 20.744 95.5953 23.528V30.392C95.5953 30.744 95.6673 31.016 95.8113 31.208C95.9713 31.384 96.1953 31.472 96.4833 31.472C96.7553 31.472 96.9713 31.384 97.1313 31.208C97.2913 31.016 97.3713 30.76 97.3713 30.44H97.8753C97.8753 31 97.6913 31.44 97.3233 31.76C96.9713 32.08 96.4753 32.24 95.8353 32.24C95.0993 32.24 94.4753 32.032 93.9633 31.616C93.4673 31.184 93.2113 30.52 93.1953 29.624C92.8113 30.44 92.2193 31.08 91.4193 31.544C90.6353 32.008 89.7633 32.24 88.8033 32.24ZM90.1233 31.184C90.5553 31.184 90.9953 31.056 91.4433 30.8C91.9073 30.544 92.2993 30.176 92.6193 29.696C92.9393 29.2 93.1313 28.608 93.1953 27.92V25.424H91.5873C90.2753 25.424 89.2913 25.72 88.6353 26.312C87.9953 26.888 87.6753 27.704 87.6753 28.76C87.6753 29.64 87.8833 30.264 88.2993 30.632C88.7153 31 89.3233 31.184 90.1233 31.184ZM103.563 32.48L98.4271 20.288L96.8671 20.048V19.568H102.243V20.048L101.115 20.36L104.739 29.384L106.875 23.552L105.459 20.288L104.211 20.048V19.568H109.875V20.048L108.147 20.36L111.771 29.384L115.011 20.696L112.995 20.072V19.592H117.171V20.072L115.683 20.648L111.267 32.48H110.595L107.211 24.368L104.235 32.48H103.563ZM117.442 31.52L119.122 31.28V13.52L117.442 13.28V12.8H121.522V22.16C122.114 21.296 122.81 20.616 123.61 20.12C124.41 19.608 125.274 19.352 126.202 19.352C127.354 19.352 128.258 19.64 128.914 20.216C129.586 20.792 129.922 21.648 129.922 22.784V31.28L131.602 31.52V32H126.082V31.52L127.522 31.28V22.832C127.522 22 127.354 21.36 127.018 20.912C126.682 20.448 126.162 20.216 125.458 20.216C124.722 20.216 124.01 20.488 123.322 21.032C122.65 21.56 122.05 22.216 121.522 23V31.28L122.962 31.52V32H117.442V31.52ZM139.399 32.24C138.215 32.24 137.143 31.976 136.183 31.448C135.223 30.904 134.463 30.144 133.903 29.168C133.343 28.192 133.063 27.064 133.063 25.784C133.063 24.504 133.335 23.384 133.879 22.424C134.439 21.448 135.183 20.696 136.111 20.168C137.055 19.624 138.103 19.352 139.255 19.352C140.263 19.352 141.167 19.576 141.967 20.024C142.767 20.472 143.391 21.096 143.839 21.896C144.287 22.68 144.519 23.584 144.535 24.608H135.703V26.984C135.703 28.392 136.015 29.536 136.639 30.416C137.279 31.28 138.199 31.712 139.399 31.712C140.503 31.712 141.479 31.4 142.327 30.776C143.175 30.152 143.695 29.344 143.887 28.352H144.439C144.215 29.536 143.647 30.48 142.735 31.184C141.823 31.888 140.711 32.24 139.399 32.24ZM141.895 24.008C141.895 22.616 141.679 21.584 141.247 20.912C140.815 20.224 140.143 19.88 139.231 19.88C138.159 19.88 137.327 20.256 136.735 21.008C136.143 21.76 135.807 22.76 135.727 24.008H141.895ZM146.132 31.52L147.812 31.28V20.288L146.132 20.048V19.568H150.212V21.416C151.22 20.04 152.356 19.352 153.62 19.352C154.228 19.352 154.764 19.512 155.228 19.832C155.692 20.136 155.924 20.576 155.924 21.152C155.924 21.568 155.788 21.92 155.516 22.208C155.244 22.48 154.884 22.616 154.436 22.616C153.924 22.616 153.508 22.416 153.188 22.016C153.364 21.792 153.452 21.552 153.452 21.296C153.452 21.024 153.356 20.808 153.164 20.648C152.988 20.472 152.748 20.384 152.444 20.384C152.108 20.384 151.764 20.544 151.412 20.864C151.06 21.168 150.66 21.648 150.212 22.304V31.28L152.132 31.52V32H146.132V31.52ZM163.235 32.24C162.051 32.24 160.979 31.976 160.019 31.448C159.059 30.904 158.299 30.144 157.739 29.168C157.179 28.192 156.899 27.064 156.899 25.784C156.899 24.504 157.171 23.384 157.715 22.424C158.275 21.448 159.019 20.696 159.947 20.168C160.891 19.624 161.939 19.352 163.091 19.352C164.099 19.352 165.003 19.576 165.803 20.024C166.603 20.472 167.227 21.096 167.675 21.896C168.123 22.68 168.355 23.584 168.371 24.608H159.539V26.984C159.539 28.392 159.851 29.536 160.475 30.416C161.115 31.28 162.035 31.712 163.235 31.712C164.339 31.712 165.315 31.4 166.163 30.776C167.011 30.152 167.531 29.344 167.723 28.352H168.275C168.051 29.536 167.483 30.48 166.571 31.184C165.659 31.888 164.547 32.24 163.235 32.24ZM165.731 24.008C165.731 22.616 165.515 21.584 165.083 20.912C164.651 20.224 163.979 19.88 163.067 19.88C161.995 19.88 161.163 20.256 160.571 21.008C159.979 21.76 159.643 22.76 159.563 24.008H165.731Z" fill="#ffffff"/>
<g clip-path="url(#clip0_55_368)">
<path fill-rule="evenodd" clip-rule="evenodd" d="M37.154 18.0199C37.4781 20.5605 39.6479 22.5239 42.2756 22.5239C45.1275 22.5239 47.4399 20.2122 47.4399 17.3603C47.4399 14.5085 45.1267 12.1976 42.2756 12.1976H9.7174C6.86553 12.1976 4.55388 14.5093 4.55388 17.3603C4.55388 20.2114 6.86472 22.5239 9.7174 22.5239C12.3451 22.5239 14.5165 20.5605 14.839 18.0199H11.763C11.4848 18.8842 10.6745 19.5091 9.7174 19.5091C8.53053 19.5091 7.56862 18.5464 7.56862 17.3595C7.56862 16.1727 8.53053 15.21 9.7174 15.21H42.2764C43.4633 15.21 44.4252 16.1727 44.4252 17.3595C44.4252 18.5464 43.4633 19.5091 42.2764 19.5091C41.3201 19.5091 40.509 18.8842 40.23 18.0199H37.154ZM14.4826 9.75295H37.5112V6.34555H37.4491C37.4491 6.33265 14.4826 6.33587 14.4826 6.34555V9.75295ZM25.1281 50.0008C-1.93277 38.3361 -1.07809 16.3146 0.813478 0H51.1811C53.0727 16.3146 53.9258 38.3361 26.8649 50V18.0199H35.514V31.0875C35.514 32.7066 34.1869 34.0329 32.5678 34.0329C32.5622 34.0329 32.5606 24.1647 32.5606 20.9701H29.8183C29.8183 22.9391 29.8183 35.4665 29.8151 44.7913C37.5225 40.6373 43.6133 34.7086 46.5474 25.945C48.9671 18.7141 48.8469 10.9487 48.1124 3.41547H3.88224C3.14609 10.9487 3.02595 18.7141 5.44565 25.945C8.37895 34.7086 14.4705 40.6381 22.1771 44.7913C22.1755 35.4657 22.1755 22.9383 22.1755 20.9701H19.4325C19.4341 24.1647 19.4325 34.0329 19.4252 34.0329C17.8062 34.0329 16.4798 32.7066 16.4798 31.0875V18.0199H25.1281V50V50.0008Z" fill="#A69D84"/>
</g>
<defs>
<clipPath id="clip0_55_368">
<rect width="51.9948" height="50" fill="white"/>
</clipPath>
</defs>
</svg>
